<svg id="Layer_1" data-name="Layer 1" xmlns="http://www.w3.org/2000/svg" viewBox="0 0 87.89 125.1"><defs><style>.cls-1,.cls-2{fill:none;stroke:#000;stroke-linecap:round;stroke-linejoin:round;}.cls-1{stroke-width:3px;}.cls-2{stroke-width:4px;}.cls-3{opacity:0.84;}</style></defs><title>zed-logo-svg-outline</title><line class="cls-1" x1="44.46" y1="2.17" x2="44.3" y2="80.92"/><line class="cls-2" x1="2.46" y1="44.17" x2="43.89" y2="83.05"/><line class="cls-2" x1="43.71" y1="2" x2="2" y2="43.71"/><g class="cls-3"><path d="M330.34,259.22v2.71H306.08v-2.16L325.69,235H306.38v-2.7h23.46v2.15l-19.57,24.73Z" transform="translate(-305.54 -136.83)"/><path d="M357.43,259.22v2.71H336.51V232.34H356.8V235H339.64v10.53h15.3v2.66h-15.3v11Z" transform="translate(-305.54 -136.83)"/><path d="M364.79,232.34h12c9.47,0,15.85,6.09,15.85,14.79s-6.38,14.8-15.85,14.8h-12Zm11.88,26.88c7.86,0,12.93-5,12.93-12.09S384.53,235,376.67,235h-8.75v24.18Z" transform="translate(-305.54 -136.83)"/></g><line class="cls-2" x1="85.43" y1="44.17" x2="44" y2="83.05"/><line class="cls-2" x1="44.18" y1="2" x2="85.89" y2="43.71"/></svg>