<svg id="Layer_1" data-name="Layer 1" xmlns="http://www.w3.org/2000/svg" viewBox="0 0 87.89 125.1"><defs><style>.cls-1,.cls-2{fill:none;stroke:#fff;stroke-linecap:round;stroke-linejoin:round;}.cls-1{stroke-width:3px;}.cls-2{stroke-width:4px;}.cls-3{opacity:0.84;}</style></defs><title>zed-logo-svg-outline</title><line class="cls-1" x1="44.46" y1="2.17" x2="44.3" y2="80.92"/><line class="cls-2" x1="2.46" y1="44.17" x2="43.89" y2="83.05"/><line class="cls-2" x1="43.71" y1="2" x2="2" y2="43.71"/><g fill="rgb(255, 255, 255)" class="cls-3"><path d="M 330.3 259.2 v 2.7 H 306.1 v -2.2 L 325.7 235 H 306.4 v -2.7 h 23.5 v 2.2 l -19.6 24.7 Z" transform="translate(-305.5,-136.8)"/><path d="M 357.4 259.2 v 2.7 H 336.5 V 232.3 H 356.8 V 235 H 339.6 v 10.5 h 15.3 v 2.7 h -15.3 v 11 Z" transform="translate(-305.5,-136.8)"/><path d="M 364.8 232.3 h 12 c 9.5 0 15.9 6.1 15.9 14.8 s -6.4 14.8 -15.9 14.8 h -12 Z m 11.9 26.9 c 7.9 0 12.9 -5 12.9 -12.1 S 384.5 235 376.7 235 h -8.8 v 24.2 Z" transform="translate(-305.5,-136.8)"/></g><line class="cls-2" x1="85.43" y1="44.17" x2="44" y2="83.05"/><line class="cls-2" x1="44.18" y1="2" x2="85.89" y2="43.71"/></svg>